<?xml version="1.0" encoding="utf-8"?>
<!-- Generator: Adobe Illustrator 24.3.0, SVG Export Plug-In . SVG Version: 6.00 Build 0)  -->
<svg version="1.1" id="Warstwa_1" xmlns="http://www.w3.org/2000/svg" xmlns:xlink="http://www.w3.org/1999/xlink" x="0px" y="0px"
	 viewBox="0 0 137.21 45.39" style="enable-background:new 0 0 137.21 45.39;" xml:space="preserve">
<style type="text/css">
	.st0{fill:#80D4BD;}
	.st1{fill:#04AF96;}
	.st2{fill:#FFFFFF;}
</style>
<g>
	<g>
		<polygon class="st0" points="10.96,16.55 27.05,23.55 27.05,33.08 0,21.32 0,11.78 		"/>
		<polygon class="st1" points="10.96,16.53 27.05,9.54 27.05,0 0,11.77 0,21.3 		"/>
	</g>
	<g>
		<polygon class="st0" points="43.14,28.33 27.05,35.33 27.05,44.87 54.11,33.1 54.11,23.57 		"/>
		<polygon class="st1" points="43.14,28.32 27.05,21.32 27.05,11.78 54.11,23.55 54.11,33.08 		"/>
	</g>
</g>
<g>
	<path class="st2" d="M68.96,0.11l-2.39,9.32l2.62,11.32h-4.31l-1.69-8.85v8.85h-4.17V0.11h4.17v8.02l1.86-8.02H68.96z"/>
	<path class="st2" d="M77.52,0.11l2.38,20.65h-4.26l-0.22-3.71h-1.49l-0.25,3.71h-4.31L71.5,0.11H77.52z M75.31,13.39
		c-0.21-2.34-0.42-5.23-0.63-8.67c-0.42,3.95-0.69,6.84-0.8,8.67H75.31z"/>
	<path class="st2" d="M93.47,0.11v20.65h-3.64l0-13.94l-1.45,13.94h-2.58L84.26,7.14l0,13.62h-3.64V0.11h5.39
		c0.16,1.24,0.33,2.7,0.49,4.39l0.59,5.25l0.96-9.64H93.47z"/>
	<path class="st2" d="M99.32,0.11v20.65h-4.17V0.11H99.32z"/>
	<path class="st2" d="M105.16,0.11v16.51h2.54v4.13h-6.7V0.11H105.16z"/>
</g>
<g>
	<path class="st2" d="M75.49,24.31l-1.86,20.65h-5.2c-0.48-3.17-0.9-6.78-1.26-10.83c-0.17,1.73-0.55,5.34-1.16,10.83h-5.17
		l-1.87-20.65h4.05l0.44,7.2l0.43,6.96c0.15-3.6,0.54-8.33,1.15-14.17h4.33c0.06,0.6,0.21,2.87,0.45,6.81l0.46,7.85
		c0.24-5,0.62-9.89,1.16-14.66H75.49z"/>
	<path class="st2" d="M85.84,36.4c0,2.07-0.04,3.54-0.11,4.41c-0.08,0.86-0.31,1.65-0.71,2.37c-0.4,0.71-0.94,1.26-1.62,1.65
		c-0.68,0.38-1.47,0.57-2.38,0.57c-0.86,0-1.63-0.18-2.31-0.54c-0.68-0.36-1.23-0.9-1.65-1.63c-0.42-0.72-0.66-1.51-0.74-2.36
		c-0.08-0.85-0.12-2.34-0.12-4.46v-3.53c0-2.07,0.04-3.54,0.11-4.41c0.08-0.86,0.31-1.65,0.71-2.37c0.4-0.71,0.94-1.26,1.62-1.65
		c0.68-0.38,1.47-0.57,2.38-0.57c0.86,0,1.63,0.18,2.31,0.54c0.68,0.36,1.23,0.9,1.65,1.63s0.66,1.51,0.74,2.36
		c0.08,0.85,0.12,2.34,0.12,4.46V36.4z M81.67,29.62c0-0.96-0.04-1.57-0.12-1.84c-0.08-0.27-0.25-0.4-0.51-0.4
		c-0.22,0-0.38,0.11-0.5,0.33s-0.17,0.86-0.17,1.92v9.64c0,1.2,0.04,1.94,0.11,2.22c0.08,0.28,0.25,0.42,0.53,0.42
		c0.28,0,0.47-0.16,0.54-0.48c0.08-0.32,0.12-1.09,0.12-2.31V29.62z"/>
	<path class="st2" d="M92.5,24.31v13.8c0,2.07-0.02,3.39-0.05,3.98c-0.03,0.59-0.18,1.12-0.45,1.6c-0.27,0.48-0.63,0.81-1.09,0.99
		c-0.46,0.18-1.15,0.27-2.07,0.27h-2.09v-3.61c0.25,0.03,0.43,0.04,0.54,0.04c0.3,0,0.53-0.09,0.7-0.28
		c0.17-0.19,0.27-0.42,0.3-0.69s0.04-0.8,0.04-1.58V24.31H92.5z"/>
	<path class="st2" d="M103.42,24.31v20.65h-3.65l-2.17-9.39v9.39h-3.49V24.31h3.49l2.34,9.3v-9.3H103.42z"/>
	<path class="st2" d="M109.26,24.31v20.65h-4.17V24.31H109.26z"/>
	<path class="st2" d="M120.67,33.3h-4.17v-3.59c0-1.04-0.04-1.69-0.13-1.95s-0.29-0.39-0.59-0.39c-0.34,0-0.56,0.16-0.65,0.47
		c-0.09,0.31-0.14,0.99-0.14,2.04v9.59c0,1,0.05,1.66,0.14,1.96c0.09,0.31,0.3,0.46,0.62,0.46c0.31,0,0.51-0.15,0.61-0.46
		c0.1-0.31,0.14-1.03,0.14-2.16v-2.6h4.17v0.8c0,2.14-0.12,3.65-0.35,4.55c-0.23,0.89-0.75,1.68-1.55,2.35
		c-0.8,0.67-1.79,1.01-2.97,1.01c-1.22,0-2.23-0.29-3.02-0.85c-0.79-0.57-1.32-1.36-1.58-2.37c-0.26-1.01-0.39-2.52-0.39-4.55v-6.03
		c0-1.49,0.04-2.6,0.12-3.35c0.08-0.74,0.31-1.46,0.71-2.15c0.39-0.69,0.94-1.23,1.63-1.63c0.7-0.4,1.5-0.59,2.4-0.59
		c1.23,0,2.24,0.31,3.04,0.92s1.32,1.37,1.57,2.29s0.38,2.33,0.38,4.26V33.3z"/>
	<path class="st2" d="M132.1,24.31l-2.39,9.32l2.62,11.32h-4.31l-1.69-8.85v8.85h-4.17V24.31h4.17v8.02l1.86-8.02H132.1z"/>
	<path class="st2" d="M137.21,24.31v20.65h-4.17V24.31H137.21z"/>
</g>
</svg>
